<svg width="131" height="36" viewBox="0 0 131 36" fill="none" xmlns="http://www.w3.org/2000/svg">
<path d="M28.2099 0H2.55827C1.14538 0 0 1.14538 0 2.55827V28.2099C0 29.6228 1.14538 30.7682 2.55827 30.7682H28.2099C29.6228 30.7682 30.7682 29.6228 30.7682 28.2099V2.55827C30.7682 1.14538 29.6228 0 28.2099 0Z" fill="#1F262C"/>
<path d="M32.3286 4.47119H6.67693C5.26403 4.47119 4.11865 5.61657 4.11865 7.02947V32.6811C4.11865 34.094 5.26403 35.2394 6.67693 35.2394H32.3286C33.7414 35.2394 34.8868 34.094 34.8868 32.6811V7.02947C34.8868 5.61657 33.7414 4.47119 32.3286 4.47119Z" fill="#FC6700"/>
<path d="M21.0294 30.923L17.8101 18.7798L29.9674 22.3804L26.1268 24.7949L30.6593 29.9205L28.7249 31.6573L23.7546 26.9977L21.0294 30.923Z" fill="#FAFAFA" stroke="black" stroke-width="0.0282401"/>
<path d="M31.3383 29.347L26.8654 24.8741L30.5665 22.6321C30.7551 22.5177 30.8585 22.3031 30.8297 22.0842C30.8012 21.8657 30.6459 21.6846 30.4343 21.6228L17.643 17.8866C17.4481 17.8296 17.2374 17.8835 17.094 18.0273C16.9505 18.1707 16.8966 18.3814 16.9534 18.5762L20.6895 31.3676C20.7514 31.5791 20.9324 31.7344 21.151 31.763C21.3695 31.7918 21.5844 31.6884 21.6988 31.4998L23.9408 27.7986L28.4138 32.2716C28.5222 32.3803 28.6645 32.4345 28.8069 32.4345C28.9492 32.4345 29.0915 32.3803 29.2 32.2716L31.3383 30.1335C31.4425 30.0293 31.5013 29.8878 31.5013 29.7404C31.5013 29.593 31.4428 29.4515 31.3383 29.3473V29.347ZM28.8069 31.092L24.2257 26.5109C24.121 26.4061 23.9792 26.3479 23.8326 26.3479C23.8103 26.3479 23.788 26.3493 23.7657 26.3519C23.5963 26.3725 23.4455 26.4696 23.3568 26.6159L21.4023 29.8424L18.3049 19.2382L28.9091 22.3356L25.6827 24.2901C25.5367 24.3785 25.4392 24.5293 25.4186 24.6987C25.398 24.8681 25.4567 25.0379 25.5773 25.1587L30.1584 29.7398L28.8066 31.0917L28.8069 31.092Z" fill="white"/>
<path d="M14.6083 14.9268C14.5425 14.861 14.4363 14.861 14.3705 14.9268L13.9932 15.3041C13.9274 15.3699 13.9274 15.4761 13.9932 15.5419L15.9361 17.4848C16.0019 17.5506 16.1081 17.5506 16.1739 17.4848L16.5512 17.1075C16.617 17.0417 16.617 16.9355 16.5512 16.8697L14.6083 14.9268Z" fill="white"/>
<path d="M15.1739 19.3203H12.4258C12.333 19.3203 12.2578 19.3955 12.2578 19.4883V20.0221C12.2578 20.1149 12.333 20.1901 12.4258 20.1901H15.1739C15.2667 20.1901 15.3419 20.1149 15.3419 20.0221V19.4883C15.3419 19.3955 15.2667 19.3203 15.1739 19.3203Z" fill="white"/>
<path d="M16.17 22.0274C16.1042 21.9616 15.998 21.9616 15.9322 22.0274L13.9893 23.9703C13.9235 24.0358 13.9235 24.1423 13.9893 24.2081L14.3666 24.5854C14.4321 24.6509 14.5386 24.6509 14.6044 24.5854L16.5473 22.6424C16.6128 22.5766 16.6128 22.4705 16.5473 22.4047L16.17 22.0274Z" fill="white"/>
<path d="M21.4713 17.4885C21.5371 17.5543 21.6433 17.5543 21.7091 17.4885L23.652 15.5456C23.7178 15.48 23.7178 15.3736 23.652 15.3078L23.2748 14.9305C23.2092 14.865 23.1028 14.865 23.037 14.9305L21.0941 16.8734C21.0285 16.9392 21.0285 17.0457 21.0941 17.1112L21.4713 17.4885Z" fill="white"/>
<path d="M18.5567 13.1948H19.0902C19.1831 13.1948 19.2582 13.2702 19.2582 13.3629V16.1106C19.2582 16.2035 19.1828 16.2786 19.0902 16.2786H18.5567C18.4638 16.2786 18.3887 16.2032 18.3887 16.1106V13.3629C18.3887 13.2699 18.4641 13.1948 18.5567 13.1948Z" fill="white"/>
<path d="M51.0133 12.7612V15.7536H47.3245V25.9352H43.7488V15.7536H40.0601V12.7612H51.0136H51.0133Z" fill="black"/>
<path d="M58.2968 12.6672C59.5766 12.6672 60.6179 12.8432 61.421 13.1942C62.2239 13.5455 62.8449 14.0222 63.2843 14.6246C63.7234 15.2269 64.0213 15.9358 64.1784 16.7513C64.3351 17.5672 64.4136 18.439 64.4136 19.3672C64.4136 20.2955 64.3351 21.1678 64.1784 21.9834C64.0213 22.7992 63.7234 23.5078 63.2843 24.1101C62.8449 24.7125 62.2239 25.1895 61.421 25.5405C60.6179 25.8918 59.5766 26.0675 58.2968 26.0675H58.0333C56.7535 26.0675 55.712 25.8918 54.9091 25.5405C54.106 25.1895 53.485 24.7125 53.0458 24.1101C52.6064 23.5078 52.3085 22.7992 52.1517 21.9834C51.9947 21.1678 51.9165 20.296 51.9165 19.3672C51.9165 18.4384 51.9947 17.5669 52.1517 16.7513C52.3085 15.9358 52.6064 15.2269 53.0458 14.6246C53.485 14.0222 54.106 13.5455 54.9091 13.1942C55.712 12.8432 56.7535 12.6672 58.0333 12.6672H58.2968ZM58.4662 23.0749C58.7673 23.0749 59.059 23.0277 59.3414 22.9337C59.6238 22.8396 59.8777 22.6546 60.1036 22.3784C60.3295 22.1025 60.5083 21.723 60.6399 21.2398C60.7718 20.7569 60.8376 20.1325 60.8376 19.3672C60.8376 18.6019 60.7718 17.9623 60.6399 17.4853C60.508 17.0086 60.3292 16.6322 60.1036 16.356C59.8777 16.0801 59.6238 15.8948 59.3414 15.8008C59.059 15.7067 58.7673 15.6596 58.4662 15.6596H57.8639C57.5628 15.6596 57.2711 15.7067 56.9887 15.8008C56.7063 15.8948 56.4553 16.0801 56.2358 16.356C56.0161 16.6322 55.8374 17.0086 55.6995 17.4853C55.5615 17.9623 55.4926 18.5895 55.4926 19.3672C55.4926 20.1449 55.5615 20.7569 55.6995 21.2398C55.8374 21.723 56.0161 22.1025 56.2358 22.3784C56.4553 22.6546 56.7063 22.8396 56.9887 22.9337C57.2711 23.0277 57.5628 23.0749 57.8639 23.0749H58.4662Z" fill="black"/>
<path d="M77.4369 17.617C77.4369 18.1315 77.3739 18.6681 77.2488 19.2261C77.1231 19.7844 76.9099 20.2989 76.6089 20.7694C76.3078 21.2399 75.9125 21.629 75.4231 21.9363C74.9337 22.2438 74.3189 22.3974 73.5787 22.3974H69.8521V25.9546H66.2764V12.7803H73.5976C74.3378 12.7803 74.9526 12.9373 75.442 13.2508C75.9314 13.5645 76.3234 13.9565 76.6182 14.427C76.9127 14.8974 77.1231 15.4182 77.2488 15.9889C77.3742 16.5599 77.4369 17.1024 77.4369 17.617ZM72.2802 19.3862C72.7066 19.3862 73.0517 19.2577 73.3152 19.0004C73.5787 18.7435 73.7106 18.2885 73.7106 17.6359C73.7106 16.9833 73.5849 16.5099 73.3341 16.2148C73.0831 15.9203 72.7318 15.7726 72.2802 15.7726H69.8524V19.3862H72.2802Z" fill="black"/>
<path d="M85.1157 18.0498C85.831 18.1001 86.4642 18.1941 87.0165 18.3322C87.5686 18.4703 88.0357 18.6742 88.4187 18.9439C88.8013 19.2139 89.093 19.5587 89.2938 19.9789C89.4943 20.3994 89.5949 20.9232 89.5949 21.5505C89.5949 22.1777 89.507 22.8085 89.3314 23.3666C89.1554 23.9249 88.8575 24.4016 88.4373 24.7969C88.0168 25.1923 87.4588 25.5027 86.7624 25.7286C86.066 25.9545 85.197 26.0675 84.1558 26.0675C83.3151 26.0675 82.5622 26.0079 81.8974 25.8887C81.2324 25.7695 80.6648 25.547 80.1943 25.2205C79.7238 24.8944 79.3598 24.4366 79.1028 23.8467C78.8455 23.257 78.7043 22.4917 78.6792 21.5505H81.8223C81.8223 22.1028 82.0545 22.5103 82.5187 22.7738C82.9827 23.0373 83.5599 23.1692 84.2501 23.1692C85.053 23.1692 85.6209 23.0596 85.9533 22.8399C86.2857 22.6205 86.452 22.3101 86.452 21.9083C86.452 21.6323 86.3642 21.4253 86.1885 21.2873C86.0126 21.1494 85.7745 21.0458 85.4735 20.9766C85.1725 20.9077 84.8271 20.8637 84.4385 20.8447C84.0493 20.8258 83.6353 20.7976 83.1962 20.76C82.619 20.7225 82.0638 20.6442 81.5306 20.5248C80.9971 20.4056 80.5267 20.2175 80.1192 19.9602C79.7114 19.7033 79.3852 19.352 79.1404 18.9063C78.8958 18.461 78.7732 17.8871 78.7732 17.1842C78.7732 16.3814 78.889 15.6946 79.1214 15.1233C79.3536 14.5525 79.6922 14.0852 80.1378 13.7212C80.5832 13.3574 81.1321 13.0906 81.7845 12.9214C82.4368 12.752 83.1835 12.6672 84.0242 12.6672C85.7053 12.6672 86.9883 13.0406 87.8731 13.787C88.7575 14.5336 89.2249 15.7474 89.2752 17.4288H86.1321C86.1321 16.7513 85.9626 16.2526 85.624 15.9326C85.2851 15.6127 84.7517 15.4528 84.0242 15.4528C83.6478 15.4528 83.3309 15.4876 83.0736 15.5565C82.8164 15.6257 82.6125 15.7228 82.462 15.8482C82.3114 15.9739 82.2047 16.121 82.142 16.2904C82.079 16.4599 82.048 16.6386 82.048 16.8267C82.048 17.1029 82.1262 17.3161 82.2832 17.4666C82.4399 17.6172 82.6563 17.7335 82.9324 17.8148C83.2084 17.8967 83.5348 17.9498 83.911 17.975C84.2874 18.0004 84.6887 18.0252 85.1154 18.0504L85.1157 18.0498Z" fill="black"/>
<path d="M100.398 22.962V25.9543H93.5476C92.7318 25.9543 92.1672 25.7631 91.8538 25.3802C91.54 24.9976 91.3833 24.4237 91.3833 23.6581V12.78H94.9591V22.3972C94.9591 22.6107 94.9935 22.7581 95.0627 22.8394C95.1316 22.9211 95.279 22.9617 95.5049 22.9617H100.398V22.962Z" fill="black"/>
<path d="M101.715 25.9543V12.78H105.291V25.9543H101.715Z" fill="black"/>
<path d="M113.666 23.0749C113.917 23.0749 114.162 23.0467 114.4 22.9902C114.638 22.9337 114.862 22.8273 115.069 22.6702C115.276 22.5135 115.454 22.291 115.605 22.0021C115.755 21.7138 115.868 21.3373 115.944 20.8728H119.35C119.287 21.5881 119.162 22.2594 118.974 22.8866C118.786 23.5141 118.475 24.0628 118.042 24.5332C117.609 25.0037 117.026 25.3773 116.292 25.653C115.558 25.9292 114.626 26.067 113.497 26.067H113.234C111.954 26.067 110.912 25.8913 110.109 25.54C109.306 25.189 108.685 24.712 108.246 24.1096C107.807 23.5073 107.509 22.7987 107.352 21.9829C107.195 21.1673 107.117 20.2955 107.117 19.3667C107.117 18.4379 107.195 17.5664 107.352 16.7508C107.509 15.9353 107.807 15.2264 108.246 14.6241C108.685 14.0217 109.306 13.545 110.109 13.1937C110.912 12.8427 111.954 12.6667 113.234 12.6667H113.497C114.626 12.6667 115.558 12.8017 116.292 13.0714C117.026 13.3414 117.609 13.7113 118.042 14.1818C118.475 14.6523 118.786 15.2047 118.974 15.8381C119.162 16.4718 119.287 17.1462 119.35 17.8612H115.944C115.868 17.3972 115.756 17.0208 115.605 16.7319C115.454 16.4436 115.276 16.2208 115.069 16.0637C114.862 15.907 114.639 15.8003 114.4 15.7438C114.162 15.6873 113.917 15.6591 113.666 15.6591H113.064C112.763 15.6591 112.471 15.7062 112.189 15.8003C111.907 15.8943 111.655 16.0796 111.436 16.3555C111.216 16.6317 111.038 17.0081 110.9 17.4848C110.762 17.9618 110.693 18.589 110.693 19.3667C110.693 20.1444 110.762 20.7564 110.9 21.2393C111.038 21.7225 111.216 22.1021 111.436 22.378C111.655 22.6541 111.907 22.8391 112.189 22.9332C112.471 23.0272 112.763 23.0744 113.064 23.0744H113.666V23.0749Z" fill="black"/>
<path d="M125.166 15.7727C124.94 15.7727 124.792 15.8137 124.723 15.895C124.654 15.9766 124.62 16.124 124.62 16.3372V17.8616H130.059V20.8729H124.62V22.3973C124.62 22.6108 124.654 22.7582 124.723 22.8395C124.792 22.9211 124.94 22.9618 125.166 22.9618H131V25.9541H123.208C122.392 25.9541 121.828 25.7629 121.514 25.38C121.201 24.9973 121.044 24.4235 121.044 23.6579V15.0947C121.044 14.3169 121.201 13.7366 121.514 13.3537C121.828 12.971 122.392 12.7795 123.208 12.7795H131V15.7719H125.166V15.7727Z" fill="black"/>
<path d="M6.66077 7.4944C6.89815 7.4944 7.09059 7.30196 7.09059 7.06458C7.09059 6.8272 6.89815 6.63477 6.66077 6.63477C6.42339 6.63477 6.23096 6.8272 6.23096 7.06458C6.23096 7.30196 6.42339 7.4944 6.66077 7.4944Z" fill="#FF5F57"/>
<path d="M8.17884 7.4944C8.41622 7.4944 8.60865 7.30196 8.60865 7.06458C8.60865 6.8272 8.41622 6.63477 8.17884 6.63477C7.94146 6.63477 7.74902 6.8272 7.74902 7.06458C7.74902 7.30196 7.94146 7.4944 8.17884 7.4944Z" fill="#FEBC2E"/>
<path d="M9.69935 7.4944C9.93673 7.4944 10.1292 7.30196 10.1292 7.06458C10.1292 6.8272 9.93673 6.63477 9.69935 6.63477C9.46196 6.63477 9.26953 6.8272 9.26953 7.06458C9.26953 7.30196 9.46196 7.4944 9.69935 7.4944Z" fill="#28C840"/>
<path d="M3.18567 3.13722C3.42305 3.13722 3.61549 2.94478 3.61549 2.7074C3.61549 2.47002 3.42305 2.27759 3.18567 2.27759C2.94829 2.27759 2.75586 2.47002 2.75586 2.7074C2.75586 2.94478 2.94829 3.13722 3.18567 3.13722Z" fill="#FF5F57"/>
<path d="M4.70374 3.13722C4.94112 3.13722 5.13356 2.94478 5.13356 2.7074C5.13356 2.47002 4.94112 2.27759 4.70374 2.27759C4.46636 2.27759 4.27393 2.47002 4.27393 2.7074C4.27393 2.94478 4.46636 3.13722 4.70374 3.13722Z" fill="#FEBC2E"/>
<path d="M6.22425 3.13722C6.46163 3.13722 6.65406 2.94478 6.65406 2.7074C6.65406 2.47002 6.46163 2.27759 6.22425 2.27759C5.98687 2.27759 5.79443 2.47002 5.79443 2.7074C5.79443 2.94478 5.98687 3.13722 6.22425 3.13722Z" fill="#28C840"/>
</svg>
